<?xml version="1.0" encoding="UTF-8" standalone="no"?>
<!-- Created with Inkscape (http://www.inkscape.org/) -->

<svg
   xmlns:osb="http://www.openswatchbook.org/uri/2009/osb"
   xmlns:dc="http://purl.org/dc/elements/1.1/"
   xmlns:cc="http://creativecommons.org/ns#"
   xmlns:rdf="http://www.w3.org/1999/02/22-rdf-syntax-ns#"
   xmlns:svg="http://www.w3.org/2000/svg"
   xmlns="http://www.w3.org/2000/svg"
   xmlns:xlink="http://www.w3.org/1999/xlink"
   xmlns:sodipodi="http://sodipodi.sourceforge.net/DTD/sodipodi-0.dtd"
   xmlns:inkscape="http://www.inkscape.org/namespaces/inkscape"
   width="694"
   height="402.7977"
   id="svg2"
   version="1.1"
   inkscape:version="0.48.5 r10040"
   sodipodi:docname="brand-logo.svg">
  <defs
     id="defs4">
    <linearGradient
       id="linearGradient5252"
       osb:paint="solid">
      <stop
         style="stop-color:#ff0000;stop-opacity:1;"
         offset="0"
         id="stop5254" />
    </linearGradient>
    <linearGradient
       id="linearGradient5215"
       osb:paint="solid">
      <stop
         style="stop-color:#000000;stop-opacity:1;"
         offset="0"
         id="stop5217" />
    </linearGradient>
    <linearGradient
       inkscape:collect="always"
       xlink:href="#linearGradient5215"
       id="linearGradient5219"
       x1="407.59961"
       y1="250.9454"
       x2="693.09741"
       y2="250.9454"
       gradientUnits="userSpaceOnUse"
       gradientTransform="translate(31.132322,-0.33973867)" />
    <linearGradient
       inkscape:collect="always"
       xlink:href="#linearGradient5215-3"
       id="linearGradient5219-0"
       x1="407.59961"
       y1="250.9454"
       x2="693.09741"
       y2="250.9454"
       gradientUnits="userSpaceOnUse"
       gradientTransform="translate(31.132322,-0.33973867)" />
    <linearGradient
       id="linearGradient5215-3"
       osb:paint="solid">
      <stop
         style="stop-color:#000000;stop-opacity:1;"
         offset="0"
         id="stop5217-1" />
    </linearGradient>
    <linearGradient
       inkscape:collect="always"
       xlink:href="#linearGradient5252"
       id="linearGradient5256"
       x1="230.90302"
       y1="252.95535"
       x2="544.51239"
       y2="252.95535"
       gradientUnits="userSpaceOnUse" />
  </defs>
  <sodipodi:namedview
     id="base"
     pagecolor="#ffffff"
     bordercolor="#666666"
     borderopacity="1.0"
     inkscape:pageopacity="0.0"
     inkscape:pageshadow="2"
     inkscape:zoom="0.7"
     inkscape:cx="461.94898"
     inkscape:cy="193.97037"
     inkscape:document-units="px"
     inkscape:current-layer="layer1"
     showgrid="false"
     inkscape:object-paths="true"
     inkscape:snap-intersection-paths="true"
     inkscape:object-nodes="true"
     inkscape:window-width="1366"
     inkscape:window-height="717"
     inkscape:window-x="0"
     inkscape:window-y="0"
     inkscape:window-maximized="1"
     fit-margin-top="0"
     fit-margin-left="0"
     fit-margin-right="0"
     fit-margin-bottom="-0.3" />
  <metadata
     id="metadata7">
    <rdf:RDF>
      <cc:Work
         rdf:about="">
        <dc:format>image/svg+xml</dc:format>
        <dc:type
           rdf:resource="http://purl.org/dc/dcmitype/StillImage" />
        <dc:title></dc:title>
      </cc:Work>
    </rdf:RDF>
  </metadata>
  <g
     inkscape:label="Camada 1"
     inkscape:groupmode="layer"
     id="layer1"
     transform="translate(-37.65625,-37.625)">
    <path
       style="fill:#000000;fill-opacity:1;fill-rule:nonzero;stroke:#000000;stroke-opacity:1"
       id="path2987"
       d="m 176.59034,166.7806 c 4.59396,12.43247 9.34204,24.82716 13.65181,37.36484 5.70888,16.61703 9.36831,33.79528 11.6729,51.1847 2.01896,16.27833 2.49743,32.52706 0.008,48.74578 -5.23904,19.11292 -17.2215,29.82748 -33.44421,39.98423 -20.99195,13.11777 -39.52448,24.90856 -62.93807,30.08682 -9.671903,2.13909 -19.517164,2.93595 -29.358099,3.81816 -9.615107,0.0266 -22.058651,3.7936 -30.506243,-2.81962 -1.119207,-0.87617 -1.921461,-2.09504 -2.882192,-3.14256 -4.658011,-7.93733 -4.516819,-17.23572 -4.634221,-26.15645 0.02165,-8.69715 2.484165,-16.7029 6.973014,-24.06188 12.918845,-16.33678 33.052902,-30.8008 54.16473,-31.89854 8.225701,0.70146 14.607061,5.74186 20.660021,10.89376 7.572,6.55285 13.78258,14.37699 19.86998,22.27035 6.21227,7.53685 11.97553,15.4086 17.70009,23.3162 6.42519,9.62815 12.34783,19.52766 19.67188,28.51277 10.1065,11.22253 22.36688,20.01301 35.83366,26.70518 11.17478,5.74531 23.34302,8.31277 35.7394,9.50274 13.44461,1.5644 26.07369,-3.80106 38.5446,-8.08768 15.34149,-4.97707 29.98492,-12.03476 44.09023,-19.81438 3.61386,-1.99318 14.3646,-8.12854 10.70426,-6.22205 -8.37371,4.36147 -16.56734,9.06028 -24.85102,13.59042 9.80775,-7.13168 19.18466,-15.12113 25.95463,-25.29588 3.31144,-4.97683 4.45553,-7.73678 7.0879,-13.08183 6.40025,-16.01093 9.29627,-33.11936 11.62371,-50.11989 2.32803,-19.28963 2.43875,-38.74076 2.77141,-58.13878 -0.0886,-17.93565 0.64369,-35.91398 -1.25604,-53.77517 -1.8273,-13.2467 -6.24702,-25.68473 -13.4748,-36.89002 -7.76483,-11.16813 -19.02378,-17.43822 -31.07391,-22.98322 -14.98466,-5.85115 -30.554,-9.92839 -45.95038,-14.51263 -18.02246,-4.84908 -36.17298,-9.16711 -54.47985,-12.794 -15.07377,-3.509474 -30.4302,-5.393754 -45.85156,-6.421605 -8.10712,-0.476584 -16.23072,-0.462638 -24.34831,-0.439613 -12.63064,1.762207 -24.39167,7.279638 -35.93989,12.427638 -16.092729,6.5612 -65.531331,35.77585 -0.16416,-1.58974 -6.2738,4.07545 -12.276409,8.71509 -16.744064,14.76199 -3.662679,4.91942 -4.44917,10.74206 -4.978534,16.66979 -0.789034,7.97303 1.073341,15.74228 3.069544,23.39239 3.573676,9.77649 7.208044,19.54328 11.833434,28.87859 4.57218,9.56428 10.85027,18.11263 16.93411,26.73931 3.72497,5.19003 8.86226,8.61286 14.34941,11.66294 4.99949,1.98929 10.09628,3.48707 15.42098,4.31012 9.01693,0.97646 18.10628,0.99902 27.16567,1.05089 10.55242,0.0262 21.05109,1.41061 31.5756,2.12946 7.17966,1.00177 14.15073,0.0414 21.24594,-0.93948 5.23826,-1.29312 10.33343,-2.89771 15.45289,-4.57014 0,0 -33.37368,25.87853 -33.37368,25.87853 l 0,0 c -5.18916,1.65816 -10.48155,3.05861 -15.86587,3.91659 -7.21391,0.88925 -14.37537,1.05326 -21.61041,0.12154 -10.38299,-0.91721 -20.76679,-2.20116 -31.20882,-2.03194 -9.3286,-0.0956 -18.72177,0.1181 -27.96465,-1.35754 -5.64556,-1.1507 -11.2726,-2.76393 -16.37112,-5.50131 -5.749289,-3.64352 -11.169036,-7.60987 -15.002769,-13.37891 -6.046777,-8.88882 -12.194471,-17.74735 -16.937147,-27.42906 -4.79089,-9.54639 -8.785955,-19.42907 -12.508859,-29.43448 -2.294403,-7.98026 -4.346051,-16.18375 -3.866979,-24.55562 0.271687,-6.42869 0.627836,-12.93941 3.894258,-18.66798 4.503448,-7.00636 9.615695,-11.8385 16.587344,-16.52922 23.432847,-13.73275 46.399342,-28.421945 71.428182,-39.142905 12.01706,-5.168586 24.43026,-10.91088 37.67984,-11.582366 8.05987,0.03634 16.12141,0.212905 24.1496,1.000506 15.34782,1.495495 30.61417,3.714336 45.65601,7.166419 18.32902,3.86289 36.56469,8.165146 54.6379,13.096647 15.65713,4.486154 31.50814,8.498089 46.54769,14.860079 12.73378,5.97897 24.42795,12.91886 32.50972,24.83875 7.57311,11.76339 12.23145,24.81262 14.1776,38.70645 1.9506,18.09551 0.91415,36.27077 1.00193,54.44156 -0.0261,19.5078 -0.3367,39.05306 -2.32574,58.47515 -2.21144,17.29354 -5.03693,34.61228 -10.78311,51.13478 -3.25735,7.17337 -6.58725,14.37893 -11.46922,20.64339 -6.04406,7.75562 -13.7802,14.0827 -21.4749,20.09086 -32.27712,19.37658 -64.08477,40.51327 -100.10447,52.45146 -13.08252,4.45738 -26.12445,9.19974 -40.17754,7.01456 -12.64235,-1.66046 -24.93238,-4.94459 -36.25811,-10.97423 -13.70799,-7.32181 -26.36069,-16.4636 -36.7944,-28.0793 -7.50118,-8.97602 -13.70272,-18.80203 -20.17877,-28.5232 -5.68518,-7.88115 -11.52355,-15.64001 -17.59672,-23.22774 -5.906838,-7.67175 -12.022963,-15.22917 -19.588978,-21.35737 -5.482446,-4.44519 -11.259201,-8.78501 -18.719099,-7.94591 -13.923692,3.53804 -34.489944,18.56948 26.323067,-16.96352 1.082715,-0.63263 -8.884167,5.40998 -8.235348,6.6672 -1.405985,2.08369 -3.066105,4.01104 -4.255846,6.22532 -2.537394,4.72247 -3.27823,10.48438 -3.907239,15.69914 0.06607,7.79283 -0.427054,16.17437 3.268658,23.27511 7.830262,7.5148 20.680465,3.50569 30.341025,3.5298 9.72675,-0.93145 19.35762,-1.95841 28.85975,-4.36201 3.12862,-0.7914 6.23143,-1.69794 9.28533,-2.74115 3.10838,-1.06182 11.84605,-5.49465 9.1854,-3.56842 -8.27301,5.98939 -17.46686,10.5911 -26.20028,15.88665 15.56585,-8.72367 28.78542,-18.91385 34.51764,-36.55242 2.92016,-15.85272 2.7189,-31.77625 0.76492,-47.77394 -2.13536,-17.13437 -5.63809,-34.06926 -11.33931,-50.40378 -4.28443,-12.27746 -9.07581,-24.46961 -14.43501,-36.30147 0,0 36.84438,-20.97861 36.84438,-20.97861 z"
       inkscape:connector-curvature="0"
       inkscape:export-xdpi="90"
       inkscape:export-ydpi="90" />
    <path
       style="fill:#000000;fill-opacity:1;fill-rule:nonzero;stroke:url(#linearGradient5256);stroke-opacity:1"
       id="path2989"
       d="m 377.45885,99.38099 c -14.78073,12.80404 -20.26943,18.62601 -25.31168,29.75935 -3.19542,7.19018 -4.71904,14.8276 -5.32118,22.62245 -0.18411,7.04893 3.65935,12.79405 7.69568,18.21785 6.38514,7.12022 14.64383,12.12377 22.59722,17.27637 9.34885,6.76793 19.6277,12.29312 30.22295,16.83968 11.14656,4.29407 21.44315,10.22889 31.75555,16.17554 12.49948,7.27639 24.92028,14.69646 36.76082,23.01504 10.81323,7.05386 20.77731,15.18066 30.52177,23.61188 6.58736,6.21283 12.26847,13.27051 18.31574,19.97674 4.17833,4.83248 7.7504,10.11535 10.41536,15.91995 2.75798,6.13926 4.61182,12.6887 6.41132,19.16969 1.60745,5.9875 2.06302,12.17032 2.31225,18.33721 0.55914,7.54329 -0.2349,14.82493 -1.90369,22.1688 -2.03039,8.88163 -22.13707,25.96989 -27.32359,33.46565 -14.90648,17.91135 -21.62225,18.0984 -41.13121,28.914 -10.69433,4.05529 -22.11182,5.55881 -33.25393,7.89206 -12.3326,2.25146 -24.6335,4.53582 -37.11048,5.82188 -12.51434,1.14781 -25.08678,1.26056 -37.64318,1.29457 -14.59465,0.46431 -28.98002,-2.48459 -43.28937,-4.93802 -13.47323,-2.69678 -26.95824,-5.66514 -39.53302,-11.30096 -12.5152,-5.95989 -23.52087,-14.617 -34.18716,-23.36627 -25.92066,-36.1371 -12.29134,-73.36851 -17.056,-98.14292 21.4217,-12.00833 15.96163,-9.56595 37.25914,-21.79229 1.39367,18.34451 3.02438,35.63715 2.34647,52.90967 2.36084,11.48753 2.23982,35.4719 12.52046,45.02955 10.51954,8.43195 21.33118,16.7967 33.73177,22.29493 12.45145,5.08617 25.58672,8.215 38.80161,10.62266 14.20166,2.4557 28.50157,4.8914 42.97848,4.24978 12.48998,-0.17063 25.00271,-0.3473 37.43536,-1.67544 12.38445,-1.5024 24.64651,-3.82198 36.9005,-6.1393 8.02431,-1.41548 17.63711,-7.74185 17.63711,-7.74185 5.755,-6.71924 11.00686,-10.59921 13.04663,-19.19217 1.70488,-6.98973 2.93457,-13.81413 2.1678,-21.05625 -0.14959,-5.87502 -0.40584,-11.78047 -1.78662,-17.52016 -1.6278,-6.29153 -3.46702,-12.62234 -6.15112,-18.54189 -2.39528,-5.47158 -5.87053,-10.31805 -9.6536,-14.92058 -5.7057,-6.74433 -11.32526,-13.58675 -17.79442,-19.63658 -9.48226,-8.40273 -19.10161,-16.62451 -29.76213,-23.53687 -11.89362,-8.14303 -24.39833,-15.30241 -36.86445,-22.5251 -10.24362,-5.83791 -20.62383,-11.34636 -31.5676,-15.78544 -10.69431,-4.89296 -21.11169,-10.47341 -30.70103,-17.31565 -8.3699,-5.43977 -17.00801,-10.79164 -23.61047,-18.41129 -4.5766,-6.19541 -8.85089,-12.82137 -9.26006,-20.75241 0.49316,-8.30054 1.88334,-16.47163 5.1732,-24.17501 4.91549,-11.34159 11.07379,-22.11681 17.67199,-32.55849 5.77333,-8.01453 12.22176,-15.46413 19.47862,-22.18479 31.30778,-22.041547 12.66,-8.963235 27.09124,-18.76438 11.05135,-6.372594 43.05768,-28.736778 128.14429,-34.811639 0,0 -9.85588,23.668442 5.71127,42.174803 -13.46873,0.852065 -42.58767,-7.439269 -68.73826,-2.781121 -31.34238,5.582952 -61.8561,17.681752 -66.15035,21.806767 z"
       inkscape:connector-curvature="0"
       sodipodi:nodetypes="ccccccccccccccccccccccccccccccccccccccccccccccccscsc"
       inkscape:export-filename="/home/dani/path2987.png"
       inkscape:export-xdpi="90"
       inkscape:export-ydpi="90" />
    <path
       style="fill:url(#linearGradient5219);fill-opacity:1;fill-rule:nonzero;stroke:#ff0000;stroke-opacity:1"
       id="path3001"
       d="m 688.8532,126.01143 c -8.78111,-1.43942 -43.40029,-15.40255 -52.27879,-15.71999 -9.87262,-0.26885 -19.74921,-0.26319 -29.62452,-0.26996 -10.90645,-0.16331 -21.72404,1.77126 -32.36541,3.98323 -14.95729,2.79287 -29.27809,8.19797 -43.42375,13.67602 -17.27208,5.29769 -69.7176,35.78133 -2.45,-2.2036 -8.94556,6.17046 -15.96445,14.46739 -22.07607,23.35067 -5.65907,8.56779 -10.03638,17.82008 -13.79982,27.34384 -4.79549,11.90585 -7.69054,24.44036 -10.46122,36.93703 -3.74034,14.40233 -5.41619,29.15974 -6.37598,43.97035 -1.21274,13.80753 0.70485,27.50396 4.01259,40.88894 2.57651,10.42603 6.893,20.29259 13.13145,29.0087 6.17726,8.33251 13.32737,16.0317 21.08998,22.91186 9.14396,8.28432 19.39602,15.23937 30.4248,20.73689 11.13789,6.3958 23.58678,8.79193 36.00061,11.25752 15.7712,2.86664 31.6838,4.75562 47.59582,6.64481 27.04864,-1.91254 44.28411,-29.0569 50.8456,-38.44649 l 51.43728,3.41299 c -4.37945,4.5494 -10.98065,28.45666 -15.31477,34.54308 -16.81517,19.23712 -58.36577,29.41798 -81.21669,27.53759 -13.12731,-0.65499 -26.23118,-1.74603 -39.28498,-3.28793 -16.08299,-1.93526 -32.19419,-3.71131 -48.13311,-6.65658 -12.7272,-2.52799 -25.34028,-5.67198 -36.7145,-12.18427 -11.16354,-5.96824 -21.6736,-13.07864 -31.11379,-21.54582 -7.94089,-7.15934 -15.33253,-15.0467 -21.66931,-23.66624 -6.43232,-9.21566 -11.09491,-19.48001 -13.64265,-30.46286 -3.55737,-13.7415 -5.47519,-27.92771 -4.42961,-42.14389 0.93134,-14.95428 2.3217,-29.92176 6.01101,-44.4907 2.70855,-12.58467 5.40395,-25.24036 9.84375,-37.35074 3.69237,-9.8033 7.9006,-19.34647 13.53874,-28.21759 5.87595,-9.22679 12.62039,-18.0338 21.36303,-24.74147 13.27741,-7.87829 26.49481,-15.85862 39.83223,-23.63488 10.6339,-6.2 22.68163,-9.86268 33.86982,-14.84903 14.43285,-5.493333 29.06811,-10.751357 44.31872,-13.47435 10.89373,-2.060879 21.9086,-3.78174 33.03572,-3.454522 9.90004,0.02171 19.80416,0.0324 29.69828,0.410875 9.14433,0.387012 18.27857,1.016524 27.35405,2.239303 z"
       inkscape:connector-curvature="0"
       sodipodi:nodetypes="ccccccccccsccccccccccccccccccccscccccc"
       inkscape:export-filename="/home/dani/path2987.png"
       inkscape:export-xdpi="90"
       inkscape:export-ydpi="90" />
  </g>
</svg>
