<?xml version="1.0" encoding="UTF-8" standalone="no"?>
<!-- Created with Inkscape (http://www.inkscape.org/) -->
<svg id="svg2" xmlns:rdf="http://www.w3.org/1999/02/22-rdf-syntax-ns#" xmlns="http://www.w3.org/2000/svg" xmlns:osb="http://www.openswatchbook.org/uri/2009/osb" viewBox="0 0 694 402.8" version="1.1" xmlns:cc="http://creativecommons.org/ns#" xmlns:xlink="http://www.w3.org/1999/xlink" xmlns:dc="http://purl.org/dc/elements/1.1/">
 <defs id="defs4">
  <linearGradient id="linearGradient5219" y2="250.95" gradientUnits="userSpaceOnUse" x2="693.1" gradientTransform="translate(31.132322,-0.33973867)" y1="250.95" x1="407.6">
   <stop id="stop5217" stop-color="#000" offset="0"/>
  </linearGradient>
  <linearGradient id="linearGradient5256" y2="252.96" gradientUnits="userSpaceOnUse" x2="544.51" y1="252.96" x1="230.9">
   <stop id="stop5254" stop-color="#F00" offset="0"/>
  </linearGradient>
 </defs>
 <metadata id="metadata7">
  <rdf:RDF>
   <cc:Work rdf:about="">
    <dc:format>image/svg+xml</dc:format>
    <dc:type rdf:resource="http://purl.org/dc/dcmitype/StillImage"/>
    <dc:title/>
   </cc:Work>
  </rdf:RDF>
 </metadata>
 <g id="layer1" fill-rule="nonzero" transform="translate(-37.65625,-37.625)">
  <path id="path2987" d="m176.59,166.78c4.594,12.432,9.342,24.827,13.652,37.365,5.7089,16.617,9.3683,33.795,11.673,51.185,2.019,16.278,2.4974,32.527,0.008,48.746-5.239,19.113-17.222,29.827-33.444,39.984-20.992,13.118-39.524,24.909-62.938,30.087-9.6719,2.1391-19.517,2.936-29.358,3.8182-9.6151,0.0266-22.059,3.7936-30.506-2.8196-1.1192-0.87617-1.9215-2.095-2.8822-3.1426-4.658-7.9373-4.5168-17.236-4.6342-26.156,0.02165-8.6972,2.4842-16.703,6.973-24.062,12.919-16.337,33.053-30.801,54.165-31.899,8.2257,0.70146,14.607,5.7419,20.66,10.894,7.572,6.5528,13.783,14.377,19.87,22.27,6.2123,7.5368,11.976,15.409,17.7,23.316,6.4252,9.6282,12.348,19.528,19.672,28.513,10.106,11.223,22.367,20.013,35.834,26.705,11.175,5.7453,23.343,8.3128,35.739,9.5027,13.445,1.5644,26.074-3.8011,38.545-8.0877,15.341-4.9771,29.985-12.035,44.09-19.814,3.6139-1.9932,14.365-8.1285,10.704-6.222-8.3737,4.3615-16.567,9.0603-24.851,13.59,9.8078-7.1317,19.185-15.121,25.955-25.296,3.3114-4.9768,4.4555-7.7368,7.0879-13.082,6.4002-16.011,9.2963-33.119,11.624-50.12,2.328-19.29,2.4388-38.741,2.7714-58.139-0.0886-17.936,0.64369-35.914-1.256-53.775-1.8273-13.247-6.247-25.685-13.475-36.89-7.7648-11.168-19.024-17.438-31.074-22.983-14.985-5.8512-30.554-9.9284-45.95-14.513-18.022-4.8491-36.173-9.1671-54.48-12.794-15.074-3.5095-30.43-5.3938-45.852-6.4216-8.1071-0.47658-16.231-0.46264-24.348-0.43961-12.631,1.7622-24.392,7.2796-35.94,12.428-16.093,6.5612-65.531,35.776-0.16416-1.5897-6.2738,4.0754-12.276,8.7151-16.744,14.762-3.6627,4.9194-4.4492,10.742-4.9785,16.67-0.78903,7.973,1.0733,15.742,3.0695,23.392,3.5737,9.7765,7.208,19.543,11.833,28.879,4.5722,9.5643,10.85,18.113,16.934,26.739,3.725,5.19,8.8623,8.6129,14.349,11.663,4.9995,1.9893,10.096,3.4871,15.421,4.3101,9.0169,0.97646,18.106,0.99902,27.166,1.0509,10.552,0.0262,21.051,1.4106,31.576,2.1295,7.1797,1.0018,14.151,0.0414,21.246-0.93948,5.2383-1.2931,10.333-2.8977,15.453-4.5701,0,0-33.374,25.879-33.374,25.879-5.1892,1.6582-10.482,3.0586-15.866,3.9166-7.2139,0.88925-14.375,1.0533-21.61,0.12154-10.383-0.91721-20.767-2.2012-31.209-2.0319-9.3286-0.0956-18.722,0.1181-27.965-1.3575-5.6456-1.1507-11.273-2.7639-16.371-5.5013-5.7493-3.6435-11.169-7.6099-15.003-13.379-6.0468-8.8888-12.194-17.747-16.937-27.429-4.7909-9.5464-8.786-19.429-12.509-29.434-2.2944-7.9803-4.3461-16.184-3.867-24.556,0.27169-6.4287,0.62784-12.939,3.8943-18.668,4.5034-7.0064,9.6157-11.838,16.587-16.529,23.433-13.733,46.399-28.422,71.428-39.143,12.017-5.1686,24.43-10.911,37.68-11.582,8.0599,0.03634,16.121,0.2129,24.15,1.0005,15.348,1.4955,30.614,3.7143,45.656,7.1664,18.329,3.8629,36.565,8.1651,54.638,13.097,15.657,4.4862,31.508,8.4981,46.548,14.86,12.734,5.979,24.428,12.919,32.51,24.839,7.5731,11.763,12.231,24.813,14.178,38.706,1.9506,18.096,0.91415,36.271,1.0019,54.442-0.0261,19.508-0.3367,39.053-2.3257,58.475-2.2114,17.294-5.0369,34.612-10.783,51.135-3.2574,7.1734-6.5872,14.379-11.469,20.643-6.0441,7.7556-13.78,14.083-21.475,20.091-32.277,19.377-64.085,40.513-100.1,52.451-13.083,4.4574-26.124,9.1997-40.178,7.0146-12.642-1.6605-24.932-4.9446-36.258-10.974-13.708-7.3218-26.361-16.464-36.794-28.079-7.5012-8.976-13.703-18.802-20.179-28.523-5.6852-7.8812-11.524-15.64-17.597-23.228-5.9068-7.6718-12.023-15.229-19.589-21.357-5.4824-4.4452-11.259-8.785-18.719-7.9459-13.924,3.538-34.49,18.569,26.323-16.964,1.0827-0.63263-8.8842,5.41-8.2353,6.6672-1.406,2.0837-3.0661,4.011-4.2558,6.2253-2.5374,4.7225-3.2782,10.484-3.9072,15.699,0.06607,7.7928-0.42705,16.174,3.2687,23.275,7.8303,7.5148,20.68,3.5057,30.341,3.5298,9.7268-0.93145,19.358-1.9584,28.86-4.362,3.1286-0.7914,6.2314-1.6979,9.2853-2.7412,3.1084-1.0618,11.846-5.4946,9.1854-3.5684-8.273,5.9894-17.467,10.591-26.2,15.887,15.566-8.7237,28.785-18.914,34.518-36.552,2.9202-15.853,2.7189-31.776,0.76492-47.774-2.1354-17.134-5.6381-34.069-11.339-50.404-4.2844-12.277-9.0758-24.47-14.435-36.301,0,0,36.844-20.979,36.844-20.979z" stroke="#000" fill="#000"/>
  <path id="path2989" d="m377.46,99.381c-14.781,12.804-20.269,18.626-25.312,29.759-3.1954,7.1902-4.719,14.828-5.3212,22.622-0.18411,7.0489,3.6594,12.794,7.6957,18.218,6.3851,7.1202,14.644,12.124,22.597,17.276,9.3488,6.7679,19.628,12.293,30.223,16.84,11.147,4.2941,21.443,10.229,31.756,16.176,12.499,7.2764,24.92,14.696,36.761,23.015,10.813,7.0539,20.777,15.181,30.522,23.612,6.5874,6.2128,12.268,13.271,18.316,19.977,4.1783,4.8325,7.7504,10.115,10.415,15.92,2.758,6.1393,4.6118,12.689,6.4113,19.17,1.6074,5.9875,2.063,12.17,2.3122,18.337,0.55914,7.5433-0.2349,14.825-1.9037,22.169-2.0304,8.8816-22.137,25.97-27.324,33.466-14.906,17.911-21.622,18.098-41.131,28.914-10.694,4.0553-22.112,5.5588-33.254,7.8921-12.333,2.2515-24.634,4.5358-37.11,5.8219-12.514,1.1478-25.087,1.2606-37.643,1.2946-14.595,0.46431-28.98-2.4846-43.289-4.938-13.473-2.6968-26.958-5.6651-39.533-11.301-12.515-5.9599-23.521-14.617-34.187-23.366-25.921-36.137-12.291-73.369-17.056-98.143,21.422-12.008,15.962-9.566,37.259-21.792,1.3937,18.345,3.0244,35.637,2.3465,52.91,2.3608,11.488,2.2398,35.472,12.52,45.03,10.52,8.432,21.331,16.797,33.732,22.295,12.451,5.0862,25.587,8.215,38.802,10.623,14.202,2.4557,28.502,4.8914,42.978,4.2498,12.49-0.17063,25.003-0.3473,37.435-1.6754,12.384-1.5024,24.647-3.822,36.9-6.1393,8.0243-1.4155,17.637-7.7418,17.637-7.7418,5.755-6.7192,11.007-10.599,13.047-19.192,1.7049-6.9897,2.9346-13.814,2.1678-21.056-0.14959-5.875-0.40584-11.78-1.7866-17.52-1.6278-6.2915-3.467-12.622-6.1511-18.542-2.3953-5.4716-5.8705-10.318-9.6536-14.921-5.7057-6.7443-11.325-13.587-17.794-19.637-9.4823-8.4027-19.102-16.625-29.762-23.537-11.894-8.143-24.398-15.302-36.864-22.525-10.244-5.8379-20.624-11.346-31.568-15.785-10.694-4.893-21.112-10.473-30.701-17.316-8.3699-5.4398-17.008-10.792-23.61-18.411-4.5766-6.1954-8.8509-12.821-9.2601-20.752,0.49316-8.3005,1.8833-16.472,5.1732-24.175,4.9155-11.342,11.074-22.117,17.672-32.558,5.7733-8.0145,12.222-15.464,19.479-22.185,31.308-22.042,12.66-8.9632,27.091-18.764,11.051-6.3726,43.058-28.737,128.14-34.812,0,0-9.8559,23.668,5.7113,42.175-13.469,0.85206-42.588-7.4393-68.738-2.7811-31.342,5.583-61.856,17.682-66.15,21.807z" stroke="url(#linearGradient5256)" fill="#000"/>
  <path id="path3001" d="m688.85,126.01c-8.7811-1.4394-43.4-15.403-52.279-15.72-9.8726-0.26885-19.749-0.26319-29.625-0.26996-10.906-0.16331-21.724,1.7713-32.365,3.9832-14.957,2.7929-29.278,8.198-43.424,13.676-17.272,5.2977-69.718,35.781-2.45-2.2036-8.9456,6.1705-15.964,14.467-22.076,23.351-5.6591,8.5678-10.036,17.82-13.8,27.344-4.7955,11.906-7.6905,24.44-10.461,36.937-3.7403,14.402-5.4162,29.16-6.376,43.97-1.2127,13.808,0.70485,27.504,4.0126,40.889,2.5765,10.426,6.893,20.293,13.131,29.009,6.1773,8.3325,13.327,16.032,21.09,22.912,9.144,8.2843,19.396,15.239,30.425,20.737,11.138,6.3958,23.587,8.7919,36.001,11.258,15.771,2.8666,31.684,4.7556,47.596,6.6448,27.049-1.9125,44.284-29.057,50.846-38.446l51.437,3.413c-4.3794,4.5494-10.981,28.457-15.315,34.543-16.815,19.237-58.366,29.418-81.217,27.538-13.127-0.65499-26.231-1.746-39.285-3.2879-16.083-1.9353-32.194-3.7113-48.133-6.6566-12.727-2.528-25.34-5.672-36.714-12.184-11.164-5.9682-21.674-13.079-31.114-21.546-7.9409-7.1593-15.333-15.047-21.669-23.666-6.4323-9.2157-11.095-19.48-13.643-30.463-3.5574-13.742-5.4752-27.928-4.4296-42.144,0.93134-14.954,2.3217-29.922,6.011-44.491,2.7086-12.585,5.404-25.24,9.8438-37.351,3.6924-9.8033,7.9006-19.346,13.539-28.218,5.876-9.2268,12.62-18.034,21.363-24.741,13.277-7.8783,26.495-15.859,39.832-23.635,10.634-6.2,22.682-9.8627,33.87-14.849,14.433-5.4933,29.068-10.751,44.319-13.474,10.894-2.0609,21.909-3.7817,33.036-3.4545,9.9,0.02171,19.804,0.0324,29.698,0.41088,9.1443,0.38701,18.279,1.0165,27.354,2.2393z" stroke="#F00" fill="url(#linearGradient5219)"/>
 </g>
</svg>
