<?xml version="1.0" encoding="UTF-8" standalone="no"?>
<!-- Created with Inkscape (http://www.inkscape.org/) -->

<svg
   xmlns:dc="http://purl.org/dc/elements/1.1/"
   xmlns:cc="http://creativecommons.org/ns#"
   xmlns:rdf="http://www.w3.org/1999/02/22-rdf-syntax-ns#"
   xmlns:svg="http://www.w3.org/2000/svg"
   xmlns="http://www.w3.org/2000/svg"
   xmlns:sodipodi="http://sodipodi.sourceforge.net/DTD/sodipodi-0.dtd"
   xmlns:inkscape="http://www.inkscape.org/namespaces/inkscape"
   width="210mm"
   height="297mm"
   viewBox="0 0 210 297"
   version="1.1"
   id="svg8"
   sodipodi:docname="dsc.svg"
   inkscape:version="0.92.1 r15371"
   inkscape:export-filename="/home/daniel/Insync/sites/danielfloripa.github.io/assets/images/svg/dsc2.png"
   inkscape:export-xdpi="90"
   inkscape:export-ydpi="90">
  <defs
     id="defs2">
    <inkscape:perspective
       sodipodi:type="inkscape:persp3d"
       inkscape:vp_x="0 : 148.5 : 1"
       inkscape:vp_y="0 : 1000 : 0"
       inkscape:vp_z="210 : 148.5 : 1"
       inkscape:persp3d-origin="105 : 99 : 1"
       id="perspective1228" />
    <inkscape:path-effect
       effect="simplify"
       id="path-effect46"
       is_visible="true"
       steps="1"
       threshold="0.00147011"
       smooth_angles="360"
       helper_size="0"
       simplify_individual_paths="false"
       simplify_just_coalesce="false"
       simplifyindividualpaths="false"
       simplifyJustCoalesce="false" />
    <inkscape:path-effect
       effect="simplify"
       id="path-effect42"
       is_visible="true"
       steps="1"
       threshold="0.000851064"
       smooth_angles="360"
       helper_size="0"
       simplify_individual_paths="false"
       simplify_just_coalesce="false"
       simplifyindividualpaths="false"
       simplifyJustCoalesce="false" />
    <filter
       inkscape:label="Flex Metal"
       inkscape:menu="Materials"
       inkscape:menu-tooltip="Bright, polished uneven metal casting, colorizable"
       height="1.5"
       y="-0.25"
       width="1.5"
       x="-0.25"
       style="color-interpolation-filters:sRGB;"
       id="filter1226">
      <feGaussianBlur
         stdDeviation="5"
         result="result8"
         id="feGaussianBlur1210" />
      <feTurbulence
         seed="25"
         result="result7"
         type="turbulence"
         numOctaves="2"
         baseFrequency="0.03"
         id="feTurbulence1212" />
      <feComposite
         in2="result8"
         result="result6"
         operator="in"
         in="result8"
         id="feComposite1214" />
      <feDisplacementMap
         in="result7"
         in2="result6"
         xChannelSelector="A"
         yChannelSelector="A"
         scale="120"
         result="result4"
         id="feDisplacementMap1216" />
      <feComposite
         in2="result4"
         result="result2"
         operator="arithmetic"
         in="SourceGraphic"
         k1="2"
         k3="2.5"
         k2="0.25"
         id="feComposite1218" />
      <feComposite
         result="fbSourceGraphic"
         in="result2"
         operator="in"
         in2="SourceGraphic"
         id="feComposite1220" />
      <feBlend
         mode="screen"
         in2="fbSourceGraphic"
         result="result91"
         id="feBlend1222" />
      <feBlend
         mode="multiply"
         in2="result91"
         id="feBlend1224" />
    </filter>
    <filter
       style="color-interpolation-filters:sRGB"
       id="filter1609"
       inkscape:label="filtro1">
      <feBlend
         mode="normal"
         in2="SourceGraphic"
         id="feBlend1611" />
      <feOffset
         dx="0"
         dy="0"
         id="feOffset1613" />
      <feOffset
         dx="0"
         dy="0"
         id="feOffset1615" />
    </filter>
    <filter
       inkscape:label="Metallized Ridge"
       inkscape:menu="Ridges"
       inkscape:menu-tooltip="Gel Ridge metallized at its top"
       height="2"
       y="-0.5"
       width="2"
       x="-0.5"
       style="color-interpolation-filters:sRGB;"
       id="filter2051">
      <feGaussianBlur
         stdDeviation="0.01"
         result="result1"
         id="feGaussianBlur2027" />
      <feGaussianBlur
         stdDeviation="2.52"
         result="result6"
         in="result1"
         id="feGaussianBlur2029" />
      <feComposite
         operator="atop"
         in="result6"
         in2="result1"
         result="result8"
         id="feComposite2031" />
      <feComposite
         operator="xor"
         result="fbSourceGraphic"
         in="result6"
         in2="result8"
         id="feComposite2033" />
      <feColorMatrix
         result="fbSourceGraphicAlpha"
         in="fbSourceGraphic"
         values="0 0 0 -1 0 0 0 0 -1 0 0 0 0 -1 0 0 0 0 2 0 "
         id="feColorMatrix2035" />
      <feGaussianBlur
         result="result0"
         in="fbSourceGraphicAlpha"
         stdDeviation="2.5"
         id="feGaussianBlur2037" />
      <feSpecularLighting
         specularExponent="35"
         specularConstant="1"
         surfaceScale="4"
         lighting-color="rgb(255,255,255)"
         result="result1"
         in="result0"
         id="feSpecularLighting2041">
        <fePointLight
           z="20000"
           y="-10000"
           x="-5000"
           id="fePointLight2039" />
      </feSpecularLighting>
      <feComposite
         operator="in"
         result="result2"
         in="result1"
         in2="fbSourceGraphicAlpha"
         id="feComposite2043" />
      <feComposite
         k3="1"
         k2="1"
         operator="arithmetic"
         result="result4"
         in="fbSourceGraphic"
         in2="result2"
         id="feComposite2045" />
      <feComposite
         operator="atop"
         in="result9"
         in2="result4"
         result="result91"
         id="feComposite2047" />
      <feBlend
         mode="multiply"
         in2="result91"
         id="feBlend2049" />
    </filter>
  </defs>
  <sodipodi:namedview
     id="base"
     pagecolor="#ffffff"
     bordercolor="#666666"
     borderopacity="1.0"
     inkscape:pageopacity="0.0"
     inkscape:pageshadow="2"
     inkscape:zoom="0.35"
     inkscape:cx="279.51311"
     inkscape:cy="512.78703"
     inkscape:document-units="mm"
     inkscape:current-layer="g1460"
     showgrid="false"
     inkscape:window-width="1366"
     inkscape:window-height="715"
     inkscape:window-x="0"
     inkscape:window-y="0"
     inkscape:window-maximized="1" />
  <metadata
     id="metadata5">
    <rdf:RDF>
      <cc:Work
         rdf:about="">
        <dc:format>image/svg+xml</dc:format>
        <dc:type
           rdf:resource="http://purl.org/dc/dcmitype/StillImage" />
      </cc:Work>
    </rdf:RDF>
  </metadata>
  <g
     inkscape:label="Camada 1"
     inkscape:groupmode="layer"
     id="layer1">
    <g
       aria-label="S"
       transform="scale(0.90393584,1.1062732)"
       style="font-style:normal;font-weight:normal;font-size:212.75054932px;line-height:1.25;font-family:sans-serif;letter-spacing:0px;word-spacing:0px;fill:#000000;fill-opacity:1;stroke:none;stroke-width:5.31876373"
       id="text12-4" />
    <g
       id="g1460">
      <path
         style="font-style:normal;font-variant:normal;font-weight:normal;font-stretch:normal;font-size:121.81468964px;line-height:1.25;font-family:'GFS Theokritos';-inkscape-font-specification:'GFS Theokritos';letter-spacing:0px;word-spacing:0px;fill:#000000;fill-opacity:1;stroke:none;stroke-width:2.53333664"
         d="m 127.93024,70.449404 c -0.1191,0.0252 -0.30363,0.39576 -0.53713,1.10779 -0.8944,2.72726 -1.05864,5.27227 -0.53993,8.37146 0.14831,0.88607 0.23624,1.68482 0.19545,1.77531 -0.1532,0.34028 -0.69892,-0.0744 -2.11697,-1.60893 -1.85225,-2.00433 -3.43156,-4.49798 -4.2864,-6.7681 -0.98586,-2.61775 -1.30509,-1.81503 -0.72284,1.81751 0.34435,2.14851 0.66981,3.22811 1.6063,5.33113 0.35656,0.80082 0.5539,1.51123 0.43871,1.57868 -0.41862,0.2451 -3.147,-0.82958 -4.28315,-1.68695 -0.58716,-0.44306 -1.1377,-0.78176 -1.22376,-0.75272 -0.24162,0.0814 0.47545,1.09957 1.43824,2.17576 -0.42003,0.13831 -0.91528,0.21735 -1.49117,0.23326 l -2.52551,-0.93542 c -3.10984,-1.08777 -6.22008,-1.63162 -9.50269,-1.63162 -1.55493,0 -3.28248,0.18133 -5.010176,0.36262 -0.258101,0.0435 -0.515171,0.0903 -0.772044,0.13852 -7.501074,0.76181 -14.1889,3.5403 -20.155806,8.33763 -2.614478,2.13243 -4.988625,4.42731 -7.093251,6.88433 -0.308184,0.0692 -0.608997,0.14109 -0.878821,0.21734 -1.797422,0.50795 -6.496774,2.81918 -7.84069,3.85594 -1.097798,0.846886 -1.05206,0.841116 1.973055,-0.23963 1.597591,-0.57074 3.490636,-1.05944 4.682872,-1.25227 -0.498306,0.66779 -0.979739,1.3455 -1.439634,2.03524 -0.05308,0.0752 -0.102195,0.14701 -0.154131,0.221316 -0.349197,0.0619 -0.924104,0.31647 -1.898775,0.76307 -2.692376,1.23365 -4.37941,2.65814 -6.125756,5.1727 h 4.64e-4 c -0.407963,0.58741 -0.688332,1.08168 -0.623021,1.09863 0.0653,0.017 0.779298,-0.53424 1.586801,-1.22521 1.73077,-1.48102 3.909151,-2.92797 4.565418,-3.03237 0.225341,-0.0359 0.39069,0.0106 0.576133,0.19823 -0.390232,0.67351 -0.710022,1.28887 -0.960065,1.84657 -0.634447,0.1823 -2.952913,1.87886 -4.006001,2.9639 -1.179334,1.21513 -2.258797,2.88269 -2.981403,4.60628 -0.315269,0.75204 -0.500795,1.38607 -0.412251,1.4091 0.08854,0.023 0.464532,-0.306 0.835182,-0.73122 1.556364,-1.78557 3.676983,-3.40215 5.052879,-3.87226 -0.225404,0.81746 -0.354817,1.59428 -0.385326,2.3306 -0.0014,0.0292 -6.41e-4,0.0602 -0.0019,0.0896 -0.151904,0.36231 -0.326581,0.83408 -0.49164,1.34383 -0.693102,2.14011 -0.867193,4.65499 -0.472604,6.82542 0.144892,0.79711 0.33476,1.46799 0.422001,1.49071 0.08724,0.0227 0.305312,-0.54156 0.484211,-1.25387 0.283885,-1.13047 0.628483,-2.05384 0.993026,-2.70835 0.771386,2.43742 2.012128,5.21969 3.731629,8.35354 2.938682,5.43314 6.444372,10.03328 10.424696,13.80131 -0.02291,0.001 -0.04528,0.001 -0.06824,0.002 -2.439016,0.17406 -4.065229,1.13145 -4.994384,2.87196 -0.348435,0.60917 -0.464328,1.21858 -0.348185,2.00181 0.116149,0.78322 0.34824,1.21819 0.928959,1.30522 0.69687,0.087 1.161382,-0.1742 1.393674,-0.78337 0.58072,-1.82754 1.509761,-2.78478 2.787347,-2.78478 1.742158,0 2.787564,1.13139 3.135997,3.30702 0.813003,5.30854 1.16155,12.7927 1.16155,22.62655 0,9.82905 -0.347834,17.31035 -0.928032,22.44463 -3.540637,-2.12369 -6.589006,-5.07417 -9.174012,-8.77309 -2.937076,-4.53234 -4.665024,-9.42708 -5.183332,-14.68459 0,0.54388 -6.8e-5,-1.81316 0.172699,-7.43325 0,-4.16974 -0.34559,-6.34518 -1.036664,-6.52648 -1.036617,-0.36258 -2.418579,1.26918 -3.973503,4.71375 -0.05728,0.11475 -0.110799,0.23004 -0.166201,0.34511 -1.039227,-0.0401 -1.587373,0.10764 -2.594682,0.6751 -0.94278,0.53111 -2.161018,2.28242 -2.376025,3.41569 -0.231215,1.21845 -0.11416,3.14911 0.233053,3.84082 0.300378,0.59836 0.315895,0.57488 0.560347,-0.85303 0.270089,-1.57792 0.84886,-2.71485 1.330074,-2.61242 0.193989,0.0413 0.373692,0.42294 0.514849,1.09345 0.08996,0.42739 0.150663,0.66859 0.22052,0.78974 -0.194466,1.00111 -0.328599,2.00718 -0.405756,3.01525 -0.762311,0.64244 -2.168794,2.89248 -2.594218,4.18872 -0.418379,1.27474 -0.511741,3.93358 -0.159701,4.55293 0.159974,0.28145 0.219798,0.20846 0.289226,-0.35466 v -4e-4 c 0.116437,-0.94443 0.717385,-2.25193 1.070093,-2.32822 0.155582,-0.0337 0.52356,0.36026 0.817541,0.87493 0.397552,0.69603 0.842308,1.24655 1.152729,1.46881 0.01123,0.0497 0.02424,0.0999 0.03575,0.14967 -0.768941,0.79846 -2.497047,3.42352 -2.982796,4.60349 -0.585224,1.42172 -0.992912,3.80306 -0.91782,5.36018 0.03745,0.77724 0.09516,0.88469 0.30687,0.572 0.143387,-0.21182 0.486835,-0.99324 0.763225,-1.7363 1.233519,-3.31633 2.465545,-4.96379 3.381584,-4.52268 0.476712,0.22954 0.909904,1.6214 0.784579,2.52007 -0.04764,0.34156 -0.0192,0.65319 0.06267,0.69261 0.111994,0.0539 0.630579,-0.21072 0.993492,-0.46731 0.659333,1.50491 1.415634,3.04642 2.27203,4.62976 -3.282613,2.35681 -5.010029,6.16383 -5.355569,11.42134 -0.202782,2.9779 3.182796,8.45105 2.764136,5.439 l 0.383469,-1.6563 0.998598,-3.05745 c 1.036616,-3.08199 4.49205,-4.5322 10.366201,-4.16961 1.036615,0.18129 5.010207,1.45017 11.920968,3.80699 6.910765,2.35681 12.612237,3.44456 17.277008,3.62586 10.53891,0.18129 20.38661,-3.26324 29.54337,-10.51497 4.66477,-3.62587 8.63868,-8.33965 12.26684,-13.95973 3.62814,-5.6201 2.98186,-9.97098 2.98186,-13.05296 0,-3.08199 -0.71514,-6.66965 -3.67313,-12.69074 -3.80092,-5.07622 -7.94714,-9.42688 -12.26637,-12.87145 -1.61523,-1.29945 -3.66773,-2.66977 -6.15547,-4.12105 0.1552,-0.47407 0.23398,-1.06178 0.23398,-1.75621 0,-2.25013 -0.49264,-3.91684 -1.35514,-4.83356 1.47857,-1.83344 2.21772,-4.1672 2.21772,-6.91737 0,-1.0834 -0.36981,-2.49991 -1.10909,-4.25001 -0.8625,-1.91678 -1.72475,-2.75019 -2.58726,-2.50018 -0.36964,0.0833 -0.36972,0.66684 -0.24651,1.75024 0.12321,1.41676 0.12312,2.75011 -0.24653,3.91685 -1.10891,3.50022 -3.32673,6.25047 -6.40708,8.16726 -0.45207,0.28828 -0.90917,0.55716 -1.36907,0.81441 -3.55893,-1.67321 -7.5586,-3.44206 -12.00082,-5.31799 -6.910771,-2.90069 -11.920907,-11.24002 -12.093676,-18.31045 -0.172769,-6.34527 1.727281,-11.603076 5.700971,-15.410236 2.937075,-2.7194 5.701725,-4.16942 8.466035,-4.35072 5.45834,-0.3996 9.88947,0.18058 13.43303,1.7383 0.3386,0.59596 0.61284,1.23427 0.82079,1.91742 0.24642,0.83339 0.24624,1.66665 0.12302,2.58337 -0.24642,1.25008 -0.36953,1.75038 -0.36953,1.66705 0,0.33335 0.12339,0.4998 0.49302,0.58314 0.91115,0.20543 2.37942,-0.63444 3.48929,-1.71799 1.37614,2.24562 1.63776,3.82423 1.43454,6.570256 -0.0711,0.95958 -0.0706,1.76377 4.6e-4,1.78726 0.22238,0.0736 1.06645,-0.80504 1.61744,-1.68376 0.33645,-0.536586 0.60525,-1.320896 0.74001,-2.159836 0.11635,-0.72444 0.23573,-1.37129 0.26555,-1.43777 0.0536,-0.11944 0.4148,-0.0276 0.93221,0.205 3.72249,5.390996 5.1638,12.049586 4.31751,20.041976 -0.17277,1.63164 0.17288,2.35688 0.86397,2.35688 1.20938,0 2.41878,-1.63159 3.4554,-4.89487 0.29731,-0.87355 0.53006,-1.70039 0.71866,-2.48066 0.20307,-0.096 0.4552,-0.25121 0.75254,-0.47647 0.51339,-0.38896 1.02616,-0.97432 1.2103,-1.37806 0.27349,-0.60295 0.46206,-0.74262 1.33703,-0.99076 0.56025,-0.15888 1.09891,-0.2625 1.19683,-0.23007 0.25679,0.085 1.93089,-1.22369 2.13369,-1.66824 l 0.17131,-0.37577 -0.84447,0.20659 c -0.97874,0.23965 -1.3473,0.0817 -1.04735,-0.449 0.41615,-0.7362 0.23671,-0.83345 -0.84957,-0.46095 -1.4981,0.51376 -1.9747,0.43042 -2.50508,-0.43785 -0.23697,-0.38795 -0.61065,-0.76487 -0.83008,-0.83751 -0.0293,-0.01 -0.0528,-0.0212 -0.0794,-0.0318 -0.0348,-0.95449 -0.0947,-1.88559 -0.18431,-2.78876 1.60955,0.7539 6.05208,3.35828 7.43633,4.38973 2.87634,2.14317 3.83091,3.61675 5.41407,8.35872 1.22518,3.66966 2.72084,6.38967 4.30218,7.82453 1.18435,1.0745 1.88199,1.41074 1.18523,0.57161 -1.62265,-1.95405 -2.30361,-3.55224 -3.27852,-7.69318 -0.7982,-3.38997 -1.37975,-5.01797 -2.23583,-6.25939 -0.8621,-1.25009 -3.30808,-3.40396 -6.61924,-5.8279 -2.77269,-2.02971 -5.45155,-4.286136 -6.8992,-5.736336 -0.10859,-0.48326 -0.22859,-0.95541 -0.35654,-1.41946 0.41744,0.15367 0.91937,0.43557 1.28829,0.76307 0.44604,0.39599 0.61804,0.46023 1.13926,0.42472 0.56083,-0.0382 0.63637,0.008 0.86815,0.53936 0.2732,0.62577 0.56478,0.67505 1.24743,0.21018 0.38759,-0.26396 0.54065,-0.25032 1.47956,0.13135 0.57597,0.23414 1.48986,0.78496 2.03109,1.22441 1.14204,0.927326 1.48853,1.812546 1.17966,3.014856 -0.22615,0.88028 -0.14121,0.97536 0.61744,0.69062 0.88991,-0.334 1.29876,0.0529 0.92758,0.87731 -0.25415,0.56448 0.21134,0.43701 1.17268,-0.32083 1.3566,-1.06947 1.91792,-1.74189 2.4503,-2.93445 0.50677,-1.135046 0.49667,-2.269426 -0.0269,-3.037536 -0.2687,-0.39421 -0.42782,-0.46371 -1.3231,-0.57678 -1.72458,-0.21784 -2.31956,-0.51002 -3.9879,-1.95683 -1.08602,-0.94182 -2.02746,-1.58431 -2.99579,-2.0448 -1.36452,-0.64889 -1.42443,-0.70456 -1.77436,-1.65152 -0.37225,-1.0072 -1.24059,-2.26888 -2.26739,-3.2939 -0.27044,-0.26995 -0.83374,-0.68221 -1.48466,-1.11216 0.23023,-0.45131 0.45316,-0.887 0.71215,-1.40035 0.86385,-1.63164 1.20937,-3.08211 1.20937,-4.71374 0.17277,-1.63165 -0.68217,-1.95552 -1.03667,-2.71911 -0.44667,2.14743 -2.44717,3.7857 -6.31981,5.01587 -0.81061,-1.26876 -1.7158,-3.09863 -2.22421,-4.59393 -0.63908,-1.88003 -1.3388,-5.92078 -1.27762,-7.37832 0.028,-0.66857 -0.0258,-0.98848 -0.14484,-0.96329 z M 97.796806,152.19721 c 3.525304,1.79178 6.990174,3.56908 10.556544,5.21569 7.94737,4.16975 11.92097,9.42724 11.92097,16.13509 0.17276,7.79561 -3.80089,13.7783 -11.74827,18.12934 -3.17887,1.66786 -6.94417,2.56653 -11.292843,2.7 l 0.563599,-6.58819 z"
         id="path883"
         inkscape:export-xdpi="90"
         inkscape:export-ydpi="90"
         inkscape:connector-curvature="0" />
      <path
         inkscape:connector-curvature="0"
         style="font-style:normal;font-variant:normal;font-weight:normal;font-stretch:normal;font-size:121.81468964px;line-height:1.25;font-family:'GFS Theokritos';-inkscape-font-specification:'GFS Theokritos';letter-spacing:0px;word-spacing:0px;fill:#803300;fill-opacity:1;stroke:none;stroke-width:3.045367;filter:url(#filter2051)"
         d="m 122.4715,70.260938 c -0.13257,0.03271 -0.33797,0.513779 -0.5979,1.438156 -0.99557,3.540612 -1.17838,6.844612 -0.60099,10.868071 0.16508,1.150329 0.26295,2.187284 0.21755,2.304769 -0.17053,0.441756 -0.77798,-0.09654 -2.35644,-2.088761 -2.06177,-2.60208 -3.81975,-5.83941 -4.77129,-8.786543 -1.09738,-3.398438 -1.45271,-2.356332 -0.8046,2.359544 0.38331,2.789253 0.74558,4.190823 1.788,6.921026 0.3969,1.039652 0.61657,1.961918 0.48835,2.049487 -0.46598,0.318196 -3.50299,-1.076981 -4.76767,-2.190046 -0.65357,-0.575191 -1.26639,-1.014902 -1.36219,-0.977202 -0.26896,0.105643 0.52924,1.427493 1.60094,2.824634 -0.46755,0.179559 -1.01882,0.282172 -1.65985,0.302823 l -2.8112,-1.214395 c -3.46163,-1.412163 -6.923697,-2.118217 -10.577647,-2.118217 -1.73081,0 -3.65379,0.23541 -5.57692,0.47077 -0.2873,0.05651 -0.57345,0.117287 -0.85938,0.179835 -8.3496,0.988997 -15.79395,4.596119 -22.43584,10.824146 -2.91023,2.768383 -5.55294,5.747664 -7.89564,8.937435 -0.34305,0.0898 -0.67789,0.18317 -0.97823,0.28215 -2.00075,0.65944 -7.2317,3.65995 -8.72764,5.0059 -1.22198,1.09946 -1.17107,1.09197 2.19625,-0.31109 1.77831,-0.74096 3.8855,-1.3754 5.2126,-1.62574 -0.55467,0.86694 -1.09056,1.74677 -1.60248,2.64221 -0.0591,0.0977 -0.11376,0.19086 -0.17157,0.28732 -0.3887,0.0803 -1.02864,0.41085 -2.11357,0.99064 -2.99693,1.60157 -4.87481,3.45088 -6.8187,6.71535 h 5.3e-4 c -0.45411,0.7626 -0.7662,1.40427 -0.6935,1.42627 0.0727,0.0221 0.86746,-0.69356 1.7663,-1.5906 1.92656,-1.9227 4.35136,-3.80117 5.08186,-3.93671 0.25084,-0.0465 0.43489,0.0138 0.64131,0.25735 -0.43438,0.87437 -0.79034,1.67325 -1.06867,2.39727 -0.70621,0.23667 -3.28695,2.43919 -4.45916,3.84783 -1.31274,1.57751 -2.514314,3.74238 -3.318661,5.97999 -0.350933,0.97632 -0.557445,1.79945 -0.458885,1.82935 0.09856,0.0299 0.51708,-0.39727 0.929658,-0.9493 1.732418,-2.31808 4.092928,-4.41676 5.624458,-5.02708 -0.2509,1.06125 -0.39495,2.06975 -0.42891,3.02566 -0.002,0.0379 -7.9e-4,0.0782 -0.002,0.11627 -0.16909,0.47036 -0.36352,1.08282 -0.54725,1.74459 -0.77151,2.77835 -0.96529,6.04324 -0.52607,8.86096 0.16128,1.03483 0.37263,1.90578 0.46974,1.93528 0.0971,0.0295 0.33985,-0.70306 0.53899,-1.6278 0.31599,-1.46761 0.69957,-2.66637 1.10535,-3.51607 0.85865,3.16434 2.23974,6.77636 4.15376,10.84482 3.2711,7.05345 7.17336,13.02549 11.60394,17.91725 -0.0255,0.002 -0.0504,0.001 -0.076,0.003 -2.71492,0.22596 -4.52509,1.46887 -5.55935,3.72845 -0.38785,0.79085 -0.51686,1.582 -0.38758,2.59881 0.12929,1.0168 0.38764,1.58149 1.03405,1.69447 0.7757,0.11298 1.29276,-0.22614 1.55132,-1.01699 0.64642,-2.37256 1.68055,-3.61528 3.10266,-3.61528 1.93923,0 3.10289,1.46881 3.49074,4.29327 0.90497,6.8917 1.29294,16.60785 1.29294,29.37443 0,12.76036 -0.38718,22.4728 -1.03301,29.13827 -3.94115,-2.75703 -7.33435,-6.58743 -10.21178,-11.38948 -3.26932,-5.88401 -5.19273,-12.2385 -5.76967,-19.06395 0,0.70608 -7e-5,-2.3539 0.19224,-9.65006 0,-5.41329 -0.38469,-8.2375 -1.15394,-8.47287 -1.15388,-0.47071 -2.69217,1.64769 -4.42298,6.11953 -0.0638,0.14896 -0.12334,0.29864 -0.18501,0.44803 -1.15678,-0.052 -1.76693,0.13974 -2.88819,0.87643 -1.049428,0.6895 -2.405473,2.96311 -2.644802,4.43436 -0.25737,1.58182 -0.127074,4.08826 0.259416,4.98625 0.334357,0.77682 0.351629,0.74633 0.623734,-1.10742 0.300641,-2.04851 0.944883,-3.5245 1.480532,-3.39152 0.21593,0.0535 0.41596,0.54907 0.57309,1.41955 0.10014,0.55485 0.16771,0.86798 0.24546,1.02526 -0.21646,1.29966 -0.36577,2.60578 -0.45165,3.91449 -0.848545,0.83403 -2.414129,3.75509 -2.887678,5.43791 -0.465706,1.65491 -0.569629,5.10669 -0.177766,5.91075 0.17807,0.36538 0.244661,0.27062 0.321943,-0.46044 v -5.3e-4 c 0.129609,-1.22608 0.798536,-2.92351 1.191143,-3.02255 0.173181,-0.0437 0.582785,0.46769 0.910022,1.13585 0.442526,0.90361 0.937586,1.61831 1.283126,1.90686 0.0125,0.0645 0.027,0.12968 0.0398,0.1943 -0.85592,1.03659 -2.779514,4.44451 -3.320211,5.97638 -0.651425,1.84572 -1.105231,4.93724 -1.021643,6.95875 0.04169,1.00903 0.105923,1.14853 0.341582,0.74259 0.159607,-0.275 0.541906,-1.28946 0.849561,-2.25413 1.373055,-4.30535 2.744451,-6.44412 3.764111,-5.87147 0.53064,0.29801 1.01283,2.10495 0.87333,3.27163 -0.053,0.44343 -0.0214,0.848 0.0698,0.89917 0.12467,0.07 0.70191,-0.27356 1.10588,-0.60668 0.73392,1.95372 1.57577,3.95495 2.52904,6.01049 -3.65394,3.05968 -5.57676,8.00206 -5.96139,14.82751 -0.22572,3.86601 3.54284,10.9714 3.07682,7.06107 l 0.42684,-2.15025 1.11156,-3.96927 c 1.15388,-4.00113 5.0002,-5.88383 11.53883,-5.41311 1.15388,0.23536 5.57697,1.88265 13.26948,4.94234 7.69251,3.05968 14.03894,4.47184 19.23138,4.7072 11.731077,0.23536 22.692747,-4.23643 32.885327,-13.65084 5.19245,-4.70721 9.61589,-10.82677 13.65447,-18.12293 4.03855,-7.29617 3.31917,-12.94461 3.31917,-16.94573 0,-4.00113 -0.79605,-8.65874 -4.08863,-16.47548 -4.23088,-6.5901 -8.84613,-12.23825 -13.65395,-16.71009 -1.79795,-1.68697 -4.08263,-3.46597 -6.85178,-5.35006 0.17275,-0.61546 0.26045,-1.37844 0.26045,-2.27996 0,-2.92119 -0.54837,-5.08496 -1.50843,-6.27507 1.64582,-2.38023 2.46858,-5.40998 2.46858,-8.98033 0,-1.4065 -0.41164,-3.24545 -1.23455,-5.51749 -0.96007,-2.48842 -1.91986,-3.57038 -2.87993,-3.2458 -0.41146,0.1082 -0.41155,0.86571 -0.2744,2.27221 0.13715,1.83927 0.13705,3.57027 -0.27441,5.08496 -1.23436,4.54409 -3.70306,8.11455 -7.13186,10.60297 -0.5032,0.37427 -1.01201,0.72333 -1.52394,1.0573 -3.9615,-2.17221 -8.413617,-4.46858 -13.358347,-6.90397 -7.69252,-3.76576 -13.2694,-14.59211 -13.46172,-23.77116 -0.19231,-8.23761 1.92268,-15.06345 6.34587,-20.006007 3.26932,-3.530405 6.34671,-5.412873 9.42372,-5.648236 6.075777,-0.518774 11.008157,0.234432 14.952567,2.256711 0.3769,0.773689 0.68217,1.602359 0.91364,2.489253 0.2743,1.081927 0.27409,2.163686 0.13694,3.3538 -0.2743,1.622889 -0.41134,2.272399 -0.41134,2.164209 0,0.43277 0.13735,0.64886 0.5488,0.75706 1.01422,0.26669 2.64858,-0.82365 3.884,-2.23035 1.53181,2.91532 1.82302,4.96473 1.59681,8.5297 -0.0791,1.24575 -0.0786,2.28978 5.3e-4,2.32027 0.24753,0.0956 1.18708,-1.04513 1.8004,-2.18591 0.37451,-0.69661 0.67372,-1.71483 0.82372,-2.80396 0.12951,-0.94049 0.26239,-1.78025 0.29559,-1.86655 0.0597,-0.15507 0.46172,-0.0359 1.03767,0.26613 4.14358,6.99875 5.74793,15.64313 4.8059,26.01909 -0.19231,2.11823 0.19245,3.05976 0.9617,3.05976 1.3462,0 2.6924,-2.11817 3.84628,-6.35466 0.33094,-1.13407 0.59002,-2.20749 0.79995,-3.22047 0.22605,-0.12457 0.5067,-0.32612 0.83768,-0.61857 0.57147,-0.50495 1.14223,-1.26488 1.3472,-1.78903 0.30443,-0.78277 0.51433,-0.96409 1.48828,-1.28623 0.62362,-0.20626 1.22322,-0.34079 1.33222,-0.29869 0.28584,0.11035 2.14932,-1.58863 2.37505,-2.16576 l 0.19068,-0.48783 -0.93999,0.2682 c -1.08946,0.31112 -1.49971,0.10606 -1.16582,-0.58291 0.46322,-0.95575 0.26348,-1.082 -0.94568,-0.59841 -1.66757,0.66698 -2.19808,0.55878 -2.78846,-0.56844 -0.26378,-0.50364 -0.67971,-0.99297 -0.92397,-1.08727 -0.0326,-0.0126 -0.0588,-0.0275 -0.0884,-0.0413 -0.0387,-1.23914 -0.10539,-2.44792 -0.20516,-3.62045 1.79163,0.97873 6.73669,4.35982 8.27753,5.69887 3.20171,2.78233 4.26426,4.69538 6.0265,10.85154 1.36378,4.76407 3.02862,8.29526 4.78886,10.15803 1.31832,1.39495 2.09488,1.83147 1.3193,0.74208 -1.8062,-2.5368 -2.5642,-4.61162 -3.64939,-9.98751 -0.88849,-4.40096 -1.53582,-6.51447 -2.48874,-8.12612 -0.95963,-1.6229 -3.6823,-4.41912 -7.36802,-7.56594 -3.08634,-2.63503 -6.06822,-5.56439 -7.67963,-7.44709 -0.12088,-0.62738 -0.25445,-1.24035 -0.39688,-1.84278 0.46466,0.1995 1.02337,0.56547 1.43402,0.99063 0.4965,0.51409 0.68796,0.59749 1.26814,0.55139 0.62427,-0.0495 0.70835,0.011 0.96635,0.70022 0.30411,0.81239 0.62868,0.87637 1.38855,0.27285 0.43144,-0.34268 0.6018,-0.32497 1.64692,0.17053 0.64112,0.30397 1.65839,1.01906 2.26085,1.58957 1.27123,1.20388 1.6569,2.3531 1.3131,3.91397 -0.25172,1.1428 -0.15718,1.26625 0.68729,0.89659 0.99057,-0.43361 1.44566,0.0687 1.0325,1.13895 -0.28289,0.73281 0.23525,0.56733 1.30534,-0.41652 1.51006,-1.38842 2.13487,-2.26137 2.72748,-3.80958 0.56409,-1.47356 0.55285,-2.94625 -0.03,-3.94343 -0.2991,-0.51177 -0.47622,-0.60201 -1.47278,-0.74879 -1.91966,-0.2828 -2.58194,-0.66212 -4.439,-2.54042 -1.20887,-1.22269 -2.25681,-2.05679 -3.33468,-2.654612 -1.51887,-0.842401 -1.58555,-0.914675 -1.97507,-2.144053 -0.41436,-1.307572 -1.38093,-2.94552 -2.52388,-4.276226 -0.30103,-0.350459 -0.92806,-0.885669 -1.65261,-1.443839 0.25629,-0.585914 0.50442,-1.151535 0.79271,-1.817979 0.96157,-2.11824 1.34618,-4.00128 1.34618,-6.119521 0.19231,-2.118244 -0.75934,-2.538704 -1.15394,-3.530018 -0.4972,2.787856 -2.724,4.914699 -7.03471,6.511748 -0.90228,-1.647148 -1.90987,-4.022743 -2.47579,-5.963983 -0.71137,-2.440711 -1.49024,-7.686533 -1.42213,-9.578743 0.0312,-0.86796 -0.0287,-1.28328 -0.16123,-1.250572 z M 88.929363,176.3883 c 3.92409,2.32614 7.7809,4.63348 11.750707,6.77117 8.84638,5.41328 13.26947,12.23871 13.26947,20.94704 0.19231,10.12049 -4.23085,17.88738 -13.07724,23.53603 -3.538467,2.16526 -7.729697,3.33194 -12.570287,3.50521 l 0.62735,-8.55296 z"
         id="path883-3"
         inkscape:export-xdpi="90"
         inkscape:export-ydpi="90"
         transform="matrix(0.89837536,0,0,0.77028014,17.904775,16.328889)" />
      <path
         d="m 130.99298,93.597431 c -1.01826,-1.602784 -3.91022,-4.022852 -5.55995,-4.652792 -1.20812,-0.461311 -1.20385,-0.473842 -0.63124,1.843707 l 0.39808,1.612058 3.34628,1.306398 3.34631,1.30626 -0.8993,-1.415612 z"
         inkscape:connector-curvature="0"
         style="fill:#ff0000;stroke-width:0.41243419;filter:url(#filter2051)"
         id="path3792"
         inkscape:export-xdpi="90"
         inkscape:export-ydpi="90"
         transform="matrix(0.89837536,0,0,0.77028014,17.904775,16.328889)" />
    </g>
  </g>
</svg>
