<?xml version="1.0" standalone="no"?>
<!DOCTYPE svg PUBLIC "-//W3C//DTD SVG 20010904//EN"
 "http://www.w3.org/TR/2001/REC-SVG-20010904/DTD/svg10.dtd">
<svg version="1.0" xmlns="http://www.w3.org/2000/svg"
 width="1388.000000pt" height="1388.000000pt" viewBox="0 0 1388.000000 1388.000000"
 preserveAspectRatio="xMidYMid meet">
<metadata>
Created by potrace 1.14, written by Peter Selinger 2001-2017
</metadata>
<g transform="translate(0.000000,1388.000000) scale(0.100000,-0.100000)"
fill="#000000" stroke="none">
<path d="M9307 10964 c-1 -1 -43 -5 -92 -9 -50 -3 -101 -8 -115 -10 -35 -6
-134 -16 -203 -20 -31 -2 -60 -6 -65 -8 -4 -3 -36 -8 -72 -12 -36 -4 -67 -8
-70 -10 -3 -2 -27 -6 -55 -9 -70 -9 -105 -14 -140 -21 -53 -10 -79 -15 -115
-21 -19 -3 -43 -7 -52 -10 -10 -3 -28 -7 -40 -9 -52 -9 -75 -14 -123 -25 -27
-6 -57 -13 -65 -15 -8 -2 -51 -12 -96 -24 -45 -11 -90 -22 -100 -24 -10 -2
-26 -7 -34 -10 -8 -3 -49 -15 -90 -27 -86 -25 -241 -76 -285 -95 -16 -7 -41
-16 -54 -20 -13 -4 -40 -14 -60 -23 -20 -9 -38 -16 -41 -17 -18 -4 -135 -59
-250 -118 -74 -39 -145 -75 -157 -81 -13 -6 -23 -14 -23 -18 0 -5 -5 -8 -10
-8 -9 0 -217 -130 -245 -153 -9 -7 -127 -91 -165 -117 -8 -6 -37 -26 -65 -46
-27 -20 -72 -51 -100 -69 -49 -33 -154 -131 -227 -213 l-37 -41 -108 34 c-97
30 -215 66 -235 71 -5 1 -9 2 -10 4 -2 1 -10 3 -18 5 -22 6 -64 16 -75 19 -5
1 -36 10 -67 19 -65 20 -305 87 -328 92 -8 1 -98 24 -200 50 -102 25 -194 48
-205 51 -11 2 -30 6 -42 9 -13 3 -32 7 -44 10 -11 2 -30 7 -41 11 -11 3 -30 7
-41 9 -12 2 -33 6 -47 10 -14 3 -45 10 -70 15 -52 11 -67 14 -135 30 -27 6
-59 14 -70 16 -11 3 -31 7 -45 9 -14 2 -34 6 -45 9 -52 12 -164 35 -195 40
-19 3 -47 8 -62 11 -71 13 -86 15 -128 20 -25 3 -52 8 -60 10 -8 2 -42 7 -75
11 -33 3 -62 7 -65 9 -5 3 -128 16 -190 20 -14 0 -30 4 -35 6 -6 3 -31 5 -57
5 -27 -1 -48 1 -48 4 0 6 -152 12 -340 13 -122 1 -181 -3 -248 -18 -12 -3 -32
-7 -45 -10 -51 -11 -153 -39 -162 -45 -5 -3 -38 -15 -73 -26 -34 -10 -62 -22
-62 -26 0 -5 -7 -8 -16 -8 -8 0 -40 -11 -70 -25 -30 -14 -57 -25 -59 -25 -3 0
-35 -14 -72 -31 -38 -17 -77 -35 -88 -39 -11 -5 -74 -35 -140 -66 -66 -31
-126 -58 -134 -60 -8 -1 -17 -6 -20 -11 -3 -4 -44 -28 -91 -51 -47 -24 -92
-48 -100 -52 -8 -5 -51 -29 -95 -53 -108 -60 -132 -73 -263 -151 -62 -36 -117
-66 -123 -66 -5 0 -9 -4 -9 -10 0 -5 -7 -10 -15 -10 -8 0 -15 -4 -15 -10 0 -5
-4 -10 -9 -10 -10 0 -382 -218 -391 -229 -3 -3 -21 -17 -40 -31 -140 -98 -273
-264 -309 -385 -28 -96 -31 -121 -36 -270 -3 -89 0 -158 11 -220 24 -143 27
-159 36 -185 3 -8 16 -49 29 -90 13 -41 47 -133 77 -205 29 -71 54 -134 56
-140 24 -78 159 -339 281 -543 6 -9 56 -85 112 -167 125 -183 170 -231 311
-326 70 -48 162 -95 162 -82 0 3 6 1 13 -5 12 -10 104 -39 153 -48 15 -3 31
-7 35 -10 4 -2 34 -7 66 -10 32 -3 69 -8 83 -10 14 -3 151 -7 305 -10 154 -3
314 -6 355 -9 41 -2 85 -4 97 -4 17 -1 25 -10 33 -40 6 -22 10 -43 9 -48 -2
-4 1 -24 5 -43 4 -19 9 -48 11 -65 2 -16 4 -30 5 -30 0 0 3 -20 5 -45 7 -78
15 -133 20 -138 3 -3 0 -11 -6 -19 -6 -7 -8 -13 -3 -13 10 0 17 -110 17 -295
1 -207 -18 -428 -45 -519 -16 -54 -73 -170 -109 -224 -16 -24 -29 -47 -29 -53
0 -5 -4 -9 -9 -9 -6 0 -18 -14 -28 -30 -9 -17 -22 -30 -28 -30 -5 1 -50 55
-100 122 -49 66 -95 126 -101 132 -5 6 -52 65 -104 131 -169 217 -325 382
-445 470 -22 17 -42 33 -45 36 -20 24 -210 117 -210 103 0 -4 -6 -2 -13 5 -13
10 -165 9 -213 -2 -164 -39 -275 -81 -405 -154 -82 -46 -232 -150 -237 -164
-2 -5 -8 -9 -12 -9 -5 0 -22 -12 -38 -27 -16 -16 -49 -46 -73 -69 -92 -85
-185 -198 -221 -267 -39 -75 -89 -215 -92 -257 -1 -14 -5 -30 -8 -35 -7 -12
-2 -374 7 -430 16 -109 64 -221 117 -274 18 -19 62 -48 98 -65 64 -30 68 -31
215 -31 134 1 251 7 385 21 25 3 68 7 95 9 136 11 217 21 290 35 28 5 64 11
80 14 53 7 197 45 297 78 l97 31 20 -24 c11 -13 20 -30 21 -36 0 -7 5 -13 10
-13 6 0 10 -7 10 -15 0 -8 5 -15 10 -15 6 0 10 -4 10 -10 0 -5 18 -33 39 -61
22 -29 45 -64 53 -78 7 -14 15 -28 18 -31 19 -19 70 -91 70 -99 0 -5 3 -11 8
-13 4 -1 31 -34 61 -73 58 -75 205 -225 285 -290 27 -22 54 -44 60 -50 23 -21
125 -95 131 -95 4 0 13 -6 20 -12 29 -26 44 -38 49 -38 3 0 24 -13 48 -29 116
-78 405 -221 478 -236 8 -2 35 -10 60 -19 25 -8 56 -17 70 -20 14 -2 32 -7 40
-10 8 -3 26 -8 40 -10 14 -3 34 -7 45 -9 11 -2 36 -7 55 -11 19 -3 46 -8 60
-11 124 -26 319 -26 450 1 14 3 36 7 50 10 14 2 32 7 40 10 8 3 29 8 45 11 17
3 38 9 48 14 9 6 21 7 26 4 5 -3 11 -2 13 2 1 5 84 35 183 67 99 33 185 63
190 67 6 3 28 12 50 19 37 12 68 24 150 60 17 8 33 14 37 14 3 1 9 4 13 8 4 3
30 -7 58 -24 29 -17 53 -30 54 -30 2 1 46 -17 128 -53 44 -19 109 -39 118 -37
4 1 7 -3 7 -9 0 -5 4 -8 8 -5 5 3 33 -3 63 -14 48 -17 157 -47 199 -54 8 -2
34 -8 58 -15 24 -7 55 -14 70 -16 15 -2 61 -11 102 -20 41 -9 84 -18 95 -20
11 -1 34 -5 50 -8 17 -3 86 -15 155 -27 117 -19 144 -24 243 -35 20 -3 56 -8
80 -12 88 -14 871 -5 1037 11 102 10 158 17 177 20 11 3 44 7 73 11 29 4 62 9
74 11 11 2 38 6 61 9 22 4 54 9 70 12 17 3 40 7 52 8 12 2 36 6 53 10 30 7 62
12 105 19 17 2 101 18 115 21 3 1 25 5 50 9 25 5 54 10 65 13 11 2 31 6 45 9
14 2 45 9 70 14 25 5 56 12 70 14 14 2 57 12 95 21 39 9 81 19 94 21 13 3 31
9 40 13 9 5 18 9 21 8 15 -2 119 39 143 55 15 11 27 16 27 12 0 -3 6 -2 13 4
6 5 77 43 157 85 80 41 162 84 183 96 119 67 241 168 346 288 l64 72 36 -19
c103 -52 427 -146 611 -176 56 -9 75 -13 75 -14 0 -1 12 -3 26 -5 15 -2 44 -6
65 -10 22 -3 53 -8 69 -10 17 -3 46 -7 65 -9 19 -3 54 -8 77 -11 23 -3 57 -8
75 -10 18 -3 56 -7 84 -10 28 -3 61 -8 74 -10 22 -4 87 -13 155 -20 17 -2 48
-6 70 -9 22 -2 67 -8 100 -11 33 -4 74 -8 90 -10 17 -2 57 -6 90 -9 33 -3 76
-8 95 -10 19 -3 69 -7 110 -11 41 -3 101 -8 133 -10 329 -28 568 -24 767 11
47 9 99 18 115 20 17 3 37 7 45 10 8 3 26 8 40 10 29 6 128 33 150 41 8 3 20
7 27 9 21 4 88 26 98 33 6 3 18 7 28 8 10 2 37 12 60 22 23 10 81 36 130 56
48 21 87 41 87 46 0 5 7 9 15 9 8 0 39 16 69 35 30 19 57 35 60 35 6 0 37 24
61 48 8 6 16 12 19 12 8 0 58 44 111 98 39 38 58 70 102 172 9 19 22 49 29 67
8 17 14 34 14 37 0 8 92 245 116 301 10 22 18 42 19 45 5 20 40 80 47 80 4 0
8 6 8 14 0 8 6 17 13 19 6 3 -1 6 -18 7 -39 2 -107 7 -225 15 -52 4 -117 8
-145 10 -27 1 -95 6 -150 10 -55 4 -127 8 -160 10 -33 2 -103 7 -155 10 -222
15 -195 19 -226 -28 -129 -198 -327 -418 -473 -526 -73 -54 -244 -148 -283
-155 -7 -2 -39 -10 -70 -20 -31 -9 -78 -19 -105 -21 -26 -2 -52 -4 -58 -5 -5
-1 -12 -2 -15 0 -5 2 -38 6 -115 15 -27 3 -61 7 -75 10 -14 2 -45 7 -70 9
-120 13 -150 17 -210 26 -63 9 -83 12 -180 25 -25 3 -52 7 -60 9 -46 9 -89 16
-120 21 -19 2 -46 7 -60 10 -199 40 -287 59 -350 76 -41 11 -85 22 -96 24 -62
14 -339 135 -354 156 -3 3 -15 9 -27 13 -24 8 -30 21 -14 31 11 6 38 84 46
130 2 17 7 41 10 55 27 124 25 422 -5 602 -13 77 -21 109 -54 218 -15 47 -28
92 -30 100 -3 8 -13 40 -24 70 -69 191 -149 314 -357 546 -11 12 -47 53 -80
90 -116 132 -244 252 -395 371 -8 7 -44 35 -80 64 -36 28 -74 58 -85 67 -11
10 -41 31 -65 47 -25 17 -51 35 -57 42 -7 6 -28 21 -47 32 -42 26 -42 22 -1
306 3 19 10 56 19 101 2 12 7 39 10 59 4 21 13 61 21 89 8 28 17 67 21 86 8
45 12 65 14 65 1 0 3 8 5 17 2 9 13 58 24 110 12 51 22 98 22 103 1 6 5 17 10
26 4 9 10 27 12 40 8 42 28 112 49 174 11 33 21 65 22 70 2 6 8 21 13 35 6 14
31 75 54 135 47 120 167 368 181 373 4 2 8 9 8 14 0 19 138 225 187 278 33 37
75 84 96 109 43 51 103 88 199 125 54 20 104 36 112 36 8 0 16 3 18 8 2 4 32
18 68 31 131 48 460 159 460 155 0 -2 18 3 39 11 22 7 55 16 74 19 19 3 45 10
58 15 13 5 27 9 32 9 4 0 20 3 35 6 15 3 38 7 52 10 14 2 59 11 100 19 41 9
93 18 115 22 23 3 52 8 65 10 14 3 50 8 80 11 30 2 75 7 100 9 57 5 580 6 720
0 58 -2 123 -9 145 -15 22 -6 48 -12 58 -15 20 -4 20 -4 222 -71 77 -25 145
-47 150 -48 6 -1 15 -4 20 -7 6 -3 69 -25 140 -48 72 -24 137 -45 145 -48 8
-4 18 -7 23 -8 4 -2 8 -3 10 -5 1 -1 9 -3 17 -5 8 -2 40 -11 70 -20 101 -29
98 -29 110 12 5 21 19 76 30 123 12 47 22 92 25 100 7 28 27 115 31 135 4 19
8 41 18 83 2 9 11 44 20 78 8 33 17 69 19 80 1 10 6 25 10 32 5 6 6 12 3 12
-2 0 2 23 9 50 13 49 13 50 -8 52 -31 2 -63 5 -137 15 -36 5 -80 8 -97 8 -18
0 -33 2 -33 5 0 3 -24 5 -53 6 -28 1 -144 5 -257 9 -374 15 -797 10 -900 -10
-10 -2 -45 -6 -76 -10 -31 -3 -91 -12 -133 -20 -42 -8 -90 -17 -108 -20 -18
-3 -63 -12 -100 -20 -37 -9 -79 -18 -93 -21 -14 -2 -34 -8 -45 -11 -25 -8 -33
-11 -66 -17 -15 -4 -107 -33 -205 -66 -99 -34 -183 -62 -189 -64 -5 -2 -23 -8
-40 -15 -16 -6 -61 -23 -100 -38 -38 -14 -88 -34 -110 -43 -22 -10 -94 -39
-160 -65 -66 -26 -132 -53 -147 -61 -14 -8 -31 -14 -37 -14 -12 0 -262 -120
-271 -130 -3 -3 -26 -17 -52 -30 -27 -14 -48 -28 -48 -32 0 -5 -6 -8 -14 -8
-7 0 -25 -9 -39 -20 -14 -11 -32 -20 -41 -20 -9 0 -16 -3 -16 -8 0 -4 -17 -16
-37 -27 -21 -11 -51 -29 -68 -41 -16 -12 -48 -31 -70 -43 -22 -11 -57 -31 -77
-43 -21 -13 -112 -68 -203 -122 -179 -108 -273 -188 -397 -341 -68 -83 -198
-276 -240 -355 -13 -25 -28 -52 -33 -60 -5 -8 -10 -17 -11 -20 0 -3 -16 -39
-36 -80 -66 -139 -95 -210 -154 -385 -30 -86 -68 -220 -79 -278 -2 -9 -6 -21
-9 -25 -3 -5 -8 -24 -11 -43 -3 -19 -10 -50 -15 -69 -5 -19 -11 -45 -13 -57
-4 -30 -14 -38 -29 -26 -7 6 -33 22 -58 35 -25 14 -74 42 -110 63 -206 119
-369 202 -550 280 -74 32 -137 60 -140 62 -3 3 -6 42 -6 88 -1 46 -5 89 -9 96
-6 8 -4 10 5 4 8 -5 11 -4 7 2 -4 5 -9 75 -12 154 -3 79 -8 164 -10 189 -3 25
-7 63 -10 85 -2 22 -7 51 -10 65 -3 14 -7 36 -10 50 -11 57 -15 72 -35 147
-49 176 -153 399 -248 532 -71 99 -197 218 -316 296 l-107 70 74 70 c151 145
275 245 303 245 3 0 28 11 55 25 27 13 49 22 49 18 0 -3 6 -1 13 5 7 6 39 20
72 33 33 12 66 26 73 32 6 5 12 6 12 2 0 -4 7 -2 15 5 8 7 15 10 15 7 0 -4 21
3 46 13 25 11 55 22 67 24 12 2 47 13 77 24 54 19 225 71 252 76 7 1 33 8 57
15 62 18 290 71 326 76 17 3 53 9 80 15 28 6 77 13 110 17 69 7 473 7 525 -1
19 -2 58 -5 85 -7 28 -1 54 -4 59 -7 4 -2 29 -6 55 -8 51 -4 113 -11 151 -18
14 -2 54 -7 90 -11 36 -4 81 -9 100 -11 62 -8 195 -12 208 -6 10 3 9 10 -5 26
-51 59 -123 192 -123 227 0 9 -3 19 -7 23 -5 4 -8 11 -9 14 0 4 -6 39 -13 78
-13 70 -11 246 4 324 4 19 8 40 9 45 1 6 5 16 9 23 5 6 6 12 2 12 -3 0 2 16
10 36 8 20 15 40 15 45 0 8 -75 10 -83 3z m-6542 -1188 c33 -3 87 -7 120 -10
81 -6 164 -15 200 -21 17 -2 53 -7 80 -10 28 -4 61 -8 75 -11 14 -2 41 -7 60
-10 19 -3 46 -8 60 -10 14 -3 34 -7 45 -8 11 -2 36 -6 55 -10 19 -4 44 -9 55
-11 11 -2 20 -4 20 -5 0 -2 24 -7 70 -15 22 -4 69 -14 105 -22 36 -8 74 -16
85 -18 11 -1 74 -15 140 -30 66 -15 131 -29 144 -32 14 -2 28 -6 31 -8 4 -2
20 -7 36 -9 46 -9 107 -23 112 -26 3 -3 7 -4 77 -19 33 -7 83 -19 111 -27 28
-8 60 -17 70 -19 20 -4 128 -33 229 -59 33 -9 67 -19 75 -23 8 -3 20 -7 26 -8
6 -2 48 -14 95 -28 46 -14 95 -28 109 -30 14 -3 36 -10 50 -15 22 -9 187 -60
215 -67 6 -1 17 -4 25 -8 8 -3 62 -22 120 -42 58 -20 119 -43 137 -51 17 -8
36 -14 41 -14 26 0 18 -27 -50 -166 -40 -82 -73 -151 -73 -154 -2 -10 -28 -85
-33 -95 -3 -5 -7 -16 -8 -25 -2 -8 -7 -33 -13 -55 -5 -22 -12 -53 -15 -70 -3
-16 -8 -41 -11 -55 -3 -14 -8 -66 -11 -115 -7 -102 7 -173 52 -271 68 -146
170 -266 324 -385 41 -32 87 -67 102 -78 14 -12 31 -21 37 -21 6 0 11 -5 11
-11 0 -5 4 -8 9 -5 5 4 11 3 13 -1 1 -5 30 -26 63 -48 33 -22 62 -43 63 -47 2
-5 7 -8 12 -8 5 0 41 -22 82 -48 84 -56 185 -115 277 -162 l63 -33 -4 -462
c-3 -254 -8 -466 -11 -473 -4 -6 -3 -13 3 -17 6 -4 7 -11 3 -18 -3 -6 -8 -45
-9 -86 -4 -119 -13 -262 -18 -311 -3 -25 -8 -72 -11 -105 -3 -33 -7 -71 -9
-85 -2 -14 -7 -50 -11 -80 -4 -30 -16 -107 -26 -170 -11 -63 -22 -128 -24
-144 -2 -15 -7 -35 -9 -45 -3 -9 -8 -32 -11 -51 -38 -229 -149 -540 -260 -730
-82 -140 -244 -314 -430 -463 -94 -76 -214 -147 -246 -147 -5 0 -9 -4 -9 -10
0 -5 -8 -10 -18 -10 -10 0 -22 -4 -28 -10 -12 -12 -214 119 -331 215 -7 6 -23
18 -35 27 -131 99 -159 130 -207 225 -27 54 -78 221 -86 282 -2 14 -6 40 -9
56 -3 17 -8 50 -11 75 -3 25 -8 56 -10 70 -2 14 -7 48 -10 75 -8 72 -15 124
-22 170 -3 22 -5 60 -4 85 3 62 3 60 -1 108 -2 24 0 46 4 48 5 3 6 9 3 14 -3
5 -8 71 -10 147 -6 167 -12 275 -20 368 -4 39 -9 99 -11 135 -3 36 -6 85 -8
110 -2 25 -5 55 -5 68 l-1 23 -42 -26 c-24 -14 -55 -30 -70 -36 -16 -6 -28
-15 -28 -20 0 -5 -4 -9 -10 -9 -5 0 -60 -31 -122 -68 -62 -38 -124 -75 -138
-83 -14 -8 -28 -18 -31 -22 -3 -5 -10 -9 -15 -9 -5 -1 -25 -11 -44 -23 -19
-12 -55 -32 -80 -46 -25 -13 -46 -27 -48 -31 -2 -5 -8 -8 -12 -8 -5 0 -36 -16
-69 -35 -50 -30 -59 -39 -55 -58 3 -12 7 -43 9 -69 2 -26 5 -50 8 -55 3 -4 3
-111 0 -238 -7 -369 -6 -564 2 -660 7 -94 12 -140 15 -140 1 0 3 -13 5 -30 8
-76 44 -236 57 -251 5 -7 8 -16 7 -20 -1 -5 3 -22 9 -37 7 -16 12 -34 12 -42
0 -8 5 -17 10 -20 6 -3 10 -13 10 -21 0 -9 23 -61 51 -117 29 -56 57 -112 63
-124 6 -13 14 -23 19 -23 4 0 7 -5 7 -11 0 -24 76 -112 134 -154 15 -11 37
-28 49 -38 12 -10 43 -35 70 -55 46 -35 47 -37 23 -43 -27 -7 -236 -3 -276 5
-14 3 -45 8 -70 11 -40 5 -94 14 -170 31 -14 3 -36 7 -48 10 -34 7 -201 62
-237 78 -109 49 -152 70 -165 82 -8 7 -19 13 -25 14 -8 2 -61 31 -153 85 -34
20 -216 149 -232 164 -9 9 -42 39 -74 66 -66 56 -163 155 -197 200 -13 17 -26
32 -29 35 -10 9 -106 145 -118 167 -7 12 -18 27 -24 35 -21 21 -68 97 -68 108
0 5 -4 10 -8 10 -5 0 -15 12 -23 28 -7 15 -22 39 -33 54 -22 32 -19 39 42 74
129 74 294 189 391 272 177 150 309 345 370 547 22 71 23 82 38 230 15 155 6
656 -12 686 -3 3 42 19 98 34 56 15 111 32 122 37 18 9 161 116 192 143 6 5
22 18 35 28 113 86 133 103 136 109 2 5 10 8 18 8 8 0 14 3 14 8 0 4 26 26 58
49 31 24 69 54 84 68 15 14 30 25 34 25 4 0 14 7 23 15 9 8 31 27 49 41 18 15
30 30 25 35 -4 4 -57 -8 -118 -27 -60 -19 -123 -39 -140 -44 -28 -8 -58 -13
-153 -26 -57 -8 -306 -12 -316 -6 -6 3 -37 7 -70 8 -102 5 -158 12 -167 21 -5
5 -11 24 -13 43 -3 19 -8 46 -11 60 -4 14 -8 34 -10 45 -14 68 -99 374 -114
410 -5 11 -26 70 -46 130 -21 61 -43 124 -50 140 -6 17 -17 46 -24 65 -6 19
-45 125 -86 235 -40 110 -75 207 -77 215 -6 28 -21 28 -70 -1 -27 -16 -53 -29
-58 -29 -6 0 -10 -3 -10 -7 0 -5 -31 -24 -68 -43 -37 -19 -68 -38 -70 -42 -2
-5 -10 -8 -17 -8 -8 0 -20 -6 -27 -12 -7 -7 -42 -28 -78 -47 -36 -19 -67 -37
-70 -40 -3 -3 -23 -15 -45 -27 -22 -12 -62 -34 -90 -49 -27 -16 -59 -33 -70
-39 -11 -6 -22 -13 -25 -16 -3 -3 -18 -13 -35 -22 -35 -20 -34 -26 5 -111 16
-34 38 -87 50 -117 12 -30 27 -66 33 -80 6 -14 11 -27 12 -30 0 -3 6 -14 12
-25 6 -11 11 -22 11 -25 0 -3 5 -16 10 -30 53 -138 114 -308 132 -365 13 -38
26 -79 31 -90 13 -31 15 -60 4 -59 -5 1 -35 5 -65 8 -66 8 -208 42 -256 62
-19 8 -37 15 -41 15 -14 2 -98 53 -153 94 -56 40 -159 143 -160 158 0 7 -7 17
-36 50 -5 7 -19 27 -29 45 -11 17 -23 32 -27 32 -4 0 -8 7 -8 15 0 8 -4 15 -9
15 -5 0 -13 9 -16 20 -3 11 -12 26 -18 33 -17 18 -57 75 -57 81 0 3 -15 29
-34 58 -40 64 -121 225 -165 328 -17 41 -38 89 -45 105 -8 17 -24 57 -36 90
-12 33 -26 69 -30 80 -4 11 -13 36 -20 55 -7 19 -16 44 -21 55 -10 25 -38 130
-45 170 -3 17 -7 37 -10 45 -17 43 -23 254 -11 355 3 28 6 50 7 50 1 0 4 13 6
29 9 53 53 148 91 195 69 87 193 197 207 184 3 -3 6 -2 6 4 0 6 15 16 33 24
17 7 57 23 87 37 30 13 69 30 85 37 17 8 50 22 75 33 159 70 378 148 388 137
3 -3 11 0 19 6 7 6 13 9 13 7 0 -3 21 1 48 8 36 11 110 13 307 9 143 -2 287
-6 320 -9z m3554 -1269 c41 -78 111 -239 111 -254 0 -7 -59 41 -59 49 -1 4
-14 21 -31 36 -16 16 -30 33 -30 37 0 5 -6 16 -14 24 -24 28 -84 149 -91 183
-9 53 -13 102 -8 111 7 12 66 -78 122 -186z m987 -1647 c7 0 38 -16 68 -35 30
-19 58 -35 61 -35 3 0 42 -22 86 -50 44 -27 83 -50 85 -50 3 0 25 -13 48 -30
24 -16 46 -26 50 -23 3 4 6 2 6 -3 0 -5 25 -23 55 -39 30 -17 55 -33 55 -37 0
-5 5 -8 10 -8 6 0 23 -8 38 -19 15 -10 58 -38 95 -62 l68 -44 -8 -115 c-9
-136 -9 -418 1 -510 7 -62 30 -207 42 -260 3 -14 7 -34 8 -45 2 -11 11 -49 21
-85 9 -36 19 -76 22 -90 6 -33 57 -185 79 -235 10 -22 18 -42 19 -45 7 -34
143 -267 187 -320 16 -19 32 -39 36 -45 141 -197 448 -481 705 -655 112 -76
113 -76 72 -115 -5 -5 -26 -30 -46 -55 -33 -40 -98 -108 -131 -135 -18 -15
-203 -106 -220 -109 -7 -1 -17 -4 -23 -8 -9 -5 -151 -37 -200 -44 -11 -1 -45
-7 -75 -13 -30 -5 -68 -12 -85 -15 -16 -3 -68 -12 -115 -20 -47 -8 -105 -18
-130 -21 -25 -3 -52 -8 -60 -10 -38 -10 -265 -33 -395 -41 -93 -5 -494 -14
-631 -14 -105 0 -165 4 -264 15 -25 3 -65 8 -90 11 -85 10 -143 18 -205 30
-16 3 -43 7 -60 10 -16 3 -57 10 -90 16 -33 6 -69 12 -80 13 -11 2 -51 10 -90
19 -38 9 -81 18 -95 20 -14 3 -77 19 -140 36 -63 16 -123 32 -132 34 -29 8
-198 67 -240 85 l-41 17 39 25 c21 13 51 31 67 39 15 8 94 55 175 105 81 49
156 95 167 101 160 90 387 240 455 301 8 7 37 32 65 56 146 125 287 297 360
437 21 41 42 78 47 81 6 3 8 8 6 11 -1 3 11 36 28 74 31 67 44 99 50 119 1 6
12 42 24 80 29 98 75 293 95 400 10 50 19 97 20 106 6 31 16 94 21 129 2 19 6
46 9 60 3 14 7 44 10 68 3 23 8 61 11 85 3 23 7 60 9 82 13 144 17 196 20 245
4 59 15 307 20 455 3 99 4 106 12 88 2 -7 11 -13 19 -13z m1594 -1179 c0 -5 6
-16 13 -23 63 -65 257 -324 257 -343 0 -2 13 -32 30 -67 33 -70 81 -198 75
-198 -2 0 3 -16 11 -35 27 -65 14 -55 -76 55 -19 24 -39 48 -45 54 -24 27 -65
86 -65 94 0 6 -3 12 -8 14 -46 20 -239 458 -202 458 5 0 10 -4 10 -9z m-8039
-381 c93 -68 242 -209 297 -279 15 -19 37 -44 50 -57 12 -13 22 -27 22 -31 0
-5 8 -16 18 -24 9 -9 26 -29 37 -44 11 -16 25 -33 30 -39 6 -6 23 -29 40 -51
16 -22 40 -51 52 -65 13 -14 23 -28 23 -32 0 -5 1 -11 3 -14 1 -3 -23 -7 -53
-9 -30 -1 -98 -6 -150 -11 -171 -14 -245 -7 -325 31 -78 37 -105 85 -125 220
-17 112 -15 316 4 410 3 11 5 23 5 28 2 14 20 6 72 -33z"/>
</g>
</svg>
